# xmcd
#
# Track frame offsets:
#	150
#	12797
#	24683
#	37539
#	45896
#	55347
#	69434
#	76385
#	82698
#	89959
#	106875
#	125707
#	133187
#	141426
#	152802
#	166118
#	171395
#	181203
#	188072
#	203222
#
# Disc length: 2891 seconds
#
# Revision: 3
# Processed by: cddbd v1.5.2PL0 Copyright (c) Steve Scherf et al.
# Submitted via: EZCDAudioConverter 1.3.4.1
#
DISCID=060b4914
DTITLE=Alan Hawkshaw - Mo'Hawk
DYEAR=2003
DGENRE=
TTITLE0=The Mohawks - Señor Thump
TTITLE1=The Mohawks - Beat Me 'Til I'm Blue
TTITLE2=Alan Hawkshaw - Move Move Move
TTITLE3=Alan Hawkshaw - Girl At The Top
TTITLE4=Alan Hawkshaw - Hastle
TTITLE5=Alan Hawkshaw - The Millionairess
TTITLE6=Alan Hawkshaw - Beat Boutique
TTITLE7=Alan Hawkshaw - Piccadilly Night Ride
TTITLE8=The Mohawks - Dr. Jekyll and Hyde Park
TTITLE9=Salon Band - Sweet Motion
TTITLE10=Alan Hawkshaw - Blue Note
TTITLE11=Alan Hawkshaw - Girl In A Sportscar
TTITLE12=Alan Hawkshaw - Dave Allen At Large
TTITLE13=Alan Hawkshaw - Raver
TTITLE14=Alan Hawkshaw - Drive On
TTITLE15=Alan Hawkshaw - Action Man
TTITLE16=The Mohawks - Rocky Mountain Roundabout
TTITLE17=Alan Hawkshaw - Powerboat
TTITLE18=Rumplestiltskin - Rumplestiltskin
TTITLE19=Alan Hawkshaw - Hawkwind And Fire
EXTD=
EXTT0=
EXTT1=
EXTT2=
EXTT3=
EXTT4=
EXTT5=
EXTT6=
EXTT7=
EXTT8=
EXTT9=
EXTT10=
EXTT11=
EXTT12=
EXTT13=
EXTT14=
EXTT15=
EXTT16=
EXTT17=
EXTT18=
EXTT19=
PLAYORDER=
